<svg width="40" height="24" viewBox="0 0 40 24" fill="none" xmlns="http://www.w3.org/2000/svg">
<g filter="url(#filter0_d)">
<path d="M22.0988 20.7306H24.1934C24.1934 20.7306 24.8266 20.6605 25.1486 20.3121C25.4466 19.9922 25.4356 19.3919 25.4356 19.3919C25.4356 19.3919 25.394 16.5809 26.6998 16.1669C27.9859 15.7593 29.6378 18.8836 31.3884 20.0864C32.7117 20.9957 33.7173 20.7963 33.7173 20.7963L38.3994 20.7306C38.3994 20.7306 40.8488 20.5794 39.6876 18.6536C39.5934 18.4958 39.0106 17.2295 36.2062 14.6266C33.2704 11.9011 33.6648 12.3437 37.2009 7.63099C39.3546 4.76087 40.2156 3.00813 39.9462 2.25883C39.6898 1.54458 38.1058 1.733 38.1058 1.733L32.8388 1.76368C32.8388 1.76368 32.4488 1.7111 32.1574 1.88418C31.8748 2.05507 31.6929 2.44944 31.6929 2.44944C31.6929 2.44944 30.8582 4.67104 29.7452 6.55962C27.3987 10.5449 26.4588 10.7553 26.0754 10.5077C25.1837 9.93147 25.4071 8.18968 25.4071 6.95399C25.4071 3.09138 25.9921 1.48105 24.2657 1.06477C23.6917 0.926742 23.271 0.834723 21.8053 0.819387C19.9254 0.799668 18.3326 0.82596 17.4322 1.26634C16.8318 1.55992 16.3696 2.21501 16.6522 2.25226C17.0005 2.29827 17.7893 2.46478 18.2078 3.03442C18.7489 3.76838 18.7292 5.42034 18.7292 5.42034C18.7292 5.42034 19.0403 9.96652 18.004 10.5318C17.2919 10.9196 16.317 10.1286 14.2246 6.51142C13.1533 4.66009 12.3426 2.61157 12.3426 2.61157C12.3426 2.61157 12.1871 2.23035 11.9088 2.02659C11.5714 1.77901 11.0982 1.70014 11.0982 1.70014L6.08972 1.73081C6.08972 1.73081 5.33823 1.75272 5.06217 2.07917C4.81679 2.37057 5.04245 2.97088 5.04245 2.97088C5.04245 2.97088 8.96422 12.1443 13.403 16.7694C17.476 21.0088 22.0988 20.7306 22.0988 20.7306Z" fill="#1E88E5"/>
</g>
<defs>
<filter id="filter0_d" x="0.947754" y="0.814819" width="43.0523" height="28" filterUnits="userSpaceOnUse" color-interpolation-filters="sRGB">
<feFlood flood-opacity="0" result="BackgroundImageFix"/>
<feColorMatrix in="SourceAlpha" type="matrix" values="0 0 0 0 0 0 0 0 0 0 0 0 0 0 0 0 0 0 127 0" result="hardAlpha"/>
<feOffset dy="4"/>
<feGaussianBlur stdDeviation="2"/>
<feComposite in2="hardAlpha" operator="out"/>
<feColorMatrix type="matrix" values="0 0 0 0 0 0 0 0 0 0 0 0 0 0 0 0 0 0 0.25 0"/>
<feBlend mode="normal" in2="BackgroundImageFix" result="effect1_dropShadow"/>
<feBlend mode="normal" in="SourceGraphic" in2="effect1_dropShadow" result="shape"/>
</filter>
</defs>
</svg>
